<svg width="72" height="72" viewBox="0 0 72 72" fill="none" xmlns="http://www.w3.org/2000/svg">
<g opacity="0.8">
<path d="M30.0519 64.5L28.6966 55.4828C27.6696 55.1328 26.5639 54.624 25.3794 53.9565C24.1944 53.2895 23.1731 52.5828 22.3156 51.8363L13.9269 55.656L7.93286 45.0578L15.5139 39.4793C15.4139 38.9523 15.3416 38.377 15.2971 37.7535C15.2531 37.1305 15.2311 36.5555 15.2311 36.0285C15.2311 35.521 15.2531 34.9557 15.2971 34.3328C15.3416 33.7098 15.4139 33.1057 15.5139 32.5208L7.93286 26.9137L13.9269 16.4018L22.2864 20.1637C23.2019 19.4172 24.2329 18.7153 25.3794 18.0578C26.5254 17.4003 27.6214 16.9117 28.6674 16.5922L30.0519 7.5H41.9484L43.3036 16.5465C44.4076 16.954 45.5116 17.4597 46.6156 18.0637C47.7191 18.6672 48.7134 19.3672 49.5984 20.1637L58.1019 16.4018L64.0674 26.9137L56.3709 32.4863C56.5094 33.0828 56.5961 33.6828 56.6311 34.2863C56.6656 34.8903 56.6829 35.4615 56.6829 36C56.6829 36.519 56.6606 37.0728 56.6161 37.6613C56.5721 38.2498 56.4904 38.8615 56.3709 39.4965L64.0381 45.0578L58.0441 55.656L49.5984 51.8078C48.6634 52.5923 47.6546 53.3162 46.5721 53.9798C45.4896 54.6432 44.4001 55.1345 43.3036 55.4535L41.9484 64.5H30.0519ZM32.7864 61.0958H39.1846L40.2639 52.725C41.8559 52.325 43.3414 51.7288 44.7204 50.9363C46.0994 50.1443 47.4176 49.1385 48.6751 47.919L56.5096 51.3113L59.5096 45.9983L52.5751 40.881C52.7751 39.9925 52.9329 39.155 53.0484 38.3685C53.1634 37.582 53.2209 36.7925 53.2209 36C53.2209 35.169 53.1709 34.37 53.0709 33.603C52.9709 32.8355 52.8056 32.0268 52.5751 31.1768L59.5674 26.0018L56.5674 20.6887L48.6459 24.081C47.5924 22.8965 46.3214 21.8523 44.8329 20.9483C43.3444 20.0443 41.8116 19.4865 40.2346 19.275L39.2139 10.9043H32.7864L31.7941 19.2465C30.1326 19.577 28.6029 20.1433 27.2049 20.9453C25.8069 21.7473 24.5041 22.7828 23.2966 24.0518L15.4329 20.6887L12.4329 26.0018L19.3674 31.0905C19.1484 31.8825 18.9811 32.6863 18.8656 33.5018C18.7501 34.3173 18.6924 35.1595 18.6924 36.0285C18.6924 36.8595 18.7501 37.673 18.8656 38.469C18.9811 39.2655 19.1389 40.0695 19.3389 40.881L12.4329 45.9983L15.4329 51.3113L23.2674 47.9482C24.4674 49.1673 25.7711 50.173 27.1786 50.9655C28.5866 51.7575 30.1156 52.3535 31.7656 52.7535L32.7864 61.0958ZM35.9139 44.4518C38.2674 44.4518 40.2644 43.6315 41.9049 41.991C43.5454 40.351 44.3656 38.354 44.3656 36C44.3656 33.646 43.5454 31.649 41.9049 30.009C40.2644 28.3685 38.2674 27.5483 35.9139 27.5483C33.5789 27.5483 31.5864 28.3685 29.9364 30.009C28.2869 31.649 27.4621 33.646 27.4621 36C27.4621 38.354 28.2869 40.351 29.9364 41.991C31.5864 43.6315 33.5789 44.4518 35.9139 44.4518Z" fill="#F5FFFF"/>
</g>
</svg>
